# xmcd CD database file
#
# Track frame offsets:
#	150
#	195615
#	314774
#
# Disc length: 4447 seconds
#
# Revision: 0
# Processed by: cddbd v1.5.1PL0 Copyright (c) Steve Scherf et al.
# Submitted via: CDex 1.51
#
DISCID=26115d03
DTITLE=Various Artist - Bravo Hit Mix No. 4
DYEAR=1997
DGENRE=Mix
TTITLE0=Bravo Hit Mix Part 1
TTITLE1=Bravo Hit Mix Part 2
TTITLE2=Elton John - Candle in the Wind 1997
EXTD=YEAR: 1997
EXTT0=
EXTT1=
EXTT2=
PLAYORDER=
